<svg width="30" height="21" viewBox="0 0 30 21" fill="none" xmlns="http://www.w3.org/2000/svg">
<path d="M19.36 0C18.67 0 18.11 0.56 18.11 1.25C18.11 1.94 18.67 2.5 19.36 2.5C23.68 2.5 27.2 6.02 27.2 10.34C27.2 14.66 23.68 18.18 19.36 18.18C15.04 18.18 11.52 14.66 11.52 10.34C11.52 8.84 11.95 7.37 12.76 6.11C13.13 5.53 12.96 4.76 12.38 4.38C11.8 4.01 11.03 4.18 10.65 4.76C9.58002 6.42 9.02002 8.35 9.02002 10.34C9.02002 16.04 13.66 20.68 19.36 20.68C25.06 20.68 29.7 16.04 29.7 10.34C29.7 4.64 25.06 0 19.36 0Z" fill="#251C5E"/>
<path d="M10.34 18.18C6.02 18.18 2.5 14.66 2.5 10.34C2.5 6.02 6.02 2.5 10.34 2.5C14.66 2.5 18.18 6.02 18.18 10.34C18.18 11.87 17.74 13.35 16.91 14.62C16.53 15.2 16.7 15.97 17.27 16.35C17.85 16.73 18.62 16.57 19 15.99C20.1 14.31 20.68 12.36 20.68 10.34C20.67 4.64 16.04 0 10.34 0C4.64 0 0 4.64 0 10.34C0 16.04 4.64 20.68 10.34 20.68C11.03 20.68 11.59 20.12 11.59 19.43C11.59 18.74 11.03 18.18 10.34 18.18Z" fill="#251C5E"/>
</svg>
