<svg width="30" height="30" viewBox="0 0 30 30" fill="none" xmlns="http://www.w3.org/2000/svg">
<path d="M24.2299 13.83C23.5399 13.83 22.9799 14.39 22.9799 15.08V25.99C22.9799 26.71 22.3899 27.3 21.6699 27.3H8.2099C7.4899 27.3 6.8999 26.71 6.8999 25.99V15.08C6.8999 14.39 6.3399 13.83 5.6499 13.83C4.9599 13.83 4.3999 14.39 4.3999 15.08V25.99C4.3999 28.09 6.1099 29.8 8.2099 29.8H21.6699C23.7699 29.8 25.4799 28.09 25.4799 25.99V15.08C25.4799 14.39 24.9199 13.83 24.2299 13.83Z" fill="#4939A8"/>
<path d="M29.4099 13.14L17.1999 0.93C15.9699 -0.31 13.9499 -0.31 12.7199 0.93L0.369941 13.27C-0.120059 13.76 -0.120059 14.55 0.369941 15.04C0.609941 15.28 0.929941 15.41 1.24994 15.41C1.56994 15.41 1.88994 15.29 2.12994 15.04L14.4799 2.69C14.7399 2.43 15.1699 2.43 15.4299 2.69L27.6399 14.9C28.1299 15.39 28.9199 15.39 29.4099 14.9C29.8999 14.41 29.8999 13.63 29.4099 13.14Z" fill="#4939A8"/>
</svg>
