<svg width="27" height="30" viewBox="0 0 27 30" fill="none" xmlns="http://www.w3.org/2000/svg">
<path d="M24.86 27.32H4.09C3.21 27.32 2.5 26.61 2.5 25.73C2.5 24.85 3.21 24.14 4.09 24.14H20.65C21.79 24.14 22.85 23.7 23.66 22.89C24.47 22.08 24.9 21.02 24.9 19.88L24.88 4.25C24.88 1.9 22.97 0 20.63 0H4.25C1.91 0 0 1.91 0 4.25V18.96C0 19.65 0.56 20.21 1.25 20.21C1.94 20.21 2.5 19.65 2.5 18.96V4.25C2.5 3.29 3.29 2.5 4.25 2.5H20.63C21.59 2.5 22.38 3.28 22.38 4.25L22.4 19.89C22.4 20.36 22.22 20.8 21.89 21.13C21.56 21.46 21.12 21.64 20.65 21.64H4.09C1.83 21.64 0 23.48 0 25.73C0 27.98 1.83 29.82 4.09 29.82H24.86C25.55 29.82 26.11 29.26 26.11 28.57C26.11 27.88 25.55 27.32 24.86 27.32Z" fill="#251C5E"/>
</svg>
