<svg width="15" height="16" viewBox="0 0 15 16" fill="none" xmlns="http://www.w3.org/2000/svg">
<path d="M2.30811 8.7104C3.01122 8.9424 3.72223 9.18602 4.42095 9.43136C4.53945 9.47197 4.59212 9.44547 4.65972 9.34689C4.86604 9.03157 5.94241 7.41684 6.17067 7.07934C6.17594 7.07224 6.18033 7.0589 6.1856 7.05179C6.81245 6.16197 7.44018 5.2784 8.07317 4.38771C8.10478 4.34509 8.14955 4.30699 8.15307 4.24286C8.13375 4.23922 8.11357 4.22933 8.09425 4.22568C7.51753 4.17952 6.94081 4.13335 6.37023 4.08632C6.28157 4.07969 6.23066 4.11866 6.18325 4.18259C5.87948 4.56252 5.58187 4.94158 5.27108 5.31613C4.99717 5.64096 4.56792 5.66313 4.28968 5.37776C4.03426 5.12099 4.02464 4.74059 4.26343 4.43342C4.62514 3.97536 4.99913 3.51557 5.36084 3.05751C5.56189 2.79383 5.82963 2.69256 6.15267 2.71713C6.96991 2.78039 7.79418 2.84901 8.61142 2.91227C8.87125 2.933 9.11264 3.00086 9.32857 3.15502C9.85874 3.53859 10.388 3.91592 10.9173 4.29325C11.1613 4.4689 11.3325 4.70571 11.429 4.99118C11.6089 5.51307 11.7958 6.04033 11.9696 6.56309C12.0126 6.69066 12.0538 6.71667 12.1811 6.68605C12.5209 6.60647 12.865 6.51355 13.2117 6.48389C13.5839 6.45701 13.8762 6.7086 13.9227 7.08382C13.9701 7.42074 13.7418 7.7137 13.3766 7.79049C12.8894 7.8908 12.4031 7.99735 11.9159 8.09766C11.8185 8.11772 11.7193 8.12531 11.6174 8.11417C11.2198 8.04919 11.0012 7.78724 10.874 7.41701C10.7029 6.91297 10.5265 6.41604 10.3562 5.91824C10.3431 5.91373 10.3299 5.90922 10.3158 5.89847C10.2904 5.94023 10.2719 5.98736 10.2403 6.02997C9.70919 6.79818 9.17891 7.57262 8.64073 8.33544C8.57313 8.43402 8.57927 8.4777 8.6767 8.54671C9.28235 8.97693 9.88888 9.41339 10.4884 9.84447C10.7666 10.0408 10.893 10.3157 10.8781 10.655C10.8701 10.9106 10.8622 11.1662 10.8534 11.4156C10.8235 12.2279 10.8006 13.0455 10.7645 13.8586C10.7425 14.3707 10.3598 14.7236 9.86818 14.7036C9.39503 14.6811 9.05009 14.2778 9.06682 13.7728C9.10026 12.8964 9.12756 12.0209 9.16188 11.1508C9.16716 11.0546 9.13995 10.9948 9.05656 10.9365C8.3052 10.4059 7.55296 9.86906 6.80775 9.33757C6.51364 9.74159 5.80252 10.656 5.60937 10.9313C5.3495 11.3114 5.00802 11.423 4.57439 11.2804C4.18026 11.1513 3.79228 11.0213 3.40342 10.8851C2.85743 10.701 2.3053 10.5178 1.75932 10.3337C1.37046 10.1975 1.13435 9.8998 1.13439 9.54349C1.16517 8.91563 1.70946 8.50825 2.30811 8.7104Z" fill="#4939A8"/>
<path d="M11.5907 3.51154C10.783 3.65054 9.98429 3.05022 9.83778 2.18642C9.68775 1.3422 10.261 0.561715 11.131 0.420319C11.964 0.284107 12.761 0.871939 12.883 1.7392C13.0058 2.65723 12.4184 3.38243 11.5907 3.51154Z" fill="#4939A8"/>
</svg>
