<svg width="29" height="29" viewBox="0 0 29 29" fill="none" xmlns="http://www.w3.org/2000/svg">
<path d="M18.37 0.0900069C17.67 -0.119993 16.92 0.0400069 16.35 0.500007C15.77 0.970007 15.46 1.69001 15.51 2.44001C15.64 4.25001 15.36 6.04001 14.66 7.77001C13.4 10.89 10.89 13.41 7.76997 14.66C6.03997 15.35 4.23997 15.64 2.43997 15.51C1.69997 15.46 0.969967 15.77 0.499967 16.35C0.0399667 16.92 -0.110033 17.67 0.0899668 18.37C1.92997 24.68 7.76997 28.97 14.27 28.97C14.69 28.97 15.12 28.95 15.55 28.91C22.56 28.3 28.3 22.56 28.91 15.55C29.52 8.55001 25.08 2.05001 18.37 0.0900069ZM26.42 15.33C25.91 21.14 21.15 25.91 15.33 26.42C9.64997 26.91 4.34997 23.4 2.59997 18.02C4.66997 18.12 6.71997 17.77 8.69997 16.98C12.45 15.47 15.47 12.45 16.98 8.70001C17.77 6.73001 18.12 4.68001 18.02 2.60001C23.4 4.35001 26.92 9.64001 26.42 15.33Z" fill="#251C5E"/>
</svg>
