<svg width="27" height="29" viewBox="0 0 27 29" fill="none" xmlns="http://www.w3.org/2000/svg">
<path d="M4.84001 17.29C5.52001 17.44 6.18001 17.02 6.34001 16.35C7.08001 13.13 9.91001 10.89 13.22 10.89C16.51 10.89 19.41 13.22 20.11 16.43C20.24 17.01 20.75 17.41 21.33 17.41C21.42 17.41 21.51 17.4 21.6 17.38C22.27 17.23 22.7 16.57 22.55 15.89C21.88 12.83 19.73 10.36 16.97 9.17C17.94 8.2 18.54 6.86 18.54 5.38C18.54 2.41 16.13 0 13.16 0C10.19 0 7.78001 2.41 7.78001 5.38C7.78001 6.87 8.39001 8.21 9.36001 9.19C6.66001 10.37 4.60001 12.76 3.90001 15.79C3.75001 16.46 4.17001 17.13 4.84001 17.29ZM13.16 2.5C14.75 2.5 16.04 3.79 16.04 5.38C16.04 6.97 14.75 8.26 13.16 8.26C11.57 8.26 10.28 6.97 10.28 5.38C10.28 3.79 11.57 2.5 13.16 2.5Z" fill="#251C5E"/>
<path d="M24.32 18.78C21.87 17.82 17.82 18.59 14.73 22.54C14.3 23.08 14.4 23.87 14.94 24.29C15.48 24.72 16.27 24.62 16.69 24.08C19.15 20.94 22.05 20.58 23.4 21.11C24.11 21.39 24.44 21.87 24.38 22.56C24.19 24.82 18.31 25.81 14.09 25.81C11.49 20.01 6.76997 17.75 3.28997 18.56C1.12997 19.06 -0.170028 20.71 -2.75709e-05 22.76C0.429972 27.98 10.38 28.31 12.86 28.31C13.05 28.31 13.2 28.31 13.29 28.31L13.55 28.3C13.56 28.3 13.56 28.3 13.57 28.31C13.66 28.31 13.81 28.31 14 28.31C16.48 28.31 26.43 27.98 26.86 22.76C27.03 20.98 26.05 19.46 24.32 18.78ZM2.50997 22.56C2.41997 21.5 3.31997 21.12 3.86997 21C4.10997 20.94 4.37997 20.91 4.66997 20.91C6.54997 20.91 9.33997 22.16 11.31 25.77C7.31997 25.57 2.66997 24.56 2.50997 22.56Z" fill="#251C5E"/>
</svg>
